# xmcd
#
# Track frame offsets:
#	150
#	8845
#	19635
#	34707
#	44975
#	57000
#	70950
#	86812
#	97497
#	106575
#	114430
#	124282
#	146855
#	166635
#
# Disc length: 2352 seconds
#
# Revision: 1
# Processed by: cddbd v1.5.1PL0 Copyright (c) Steve Scherf et al.
# Submitted via: CDex 1.50Beta5
#
DISCID=c0092e0e
DTITLE=PABLO-BRAIN - tribute to OPERATION IVY
DYEAR=2002
DGENRE=Rock
TTITLE0=PABLO-BRAIN/I Got No
TTITLE1=TOMATO JELLY/Freeze Up
TTITLE2=DOBERMAN/Bombshell
TTITLE3=PORTER’S MARKET/Missionary
TTITLE4=STORM,THE/Junkie’s Running Dry
TTITLE5=POTSHOT/One Of These Days
TTITLE6=MOONSHINER/Take Warning
TTITLE7=GELUGUGU/Healthy Body
TTITLE8=OVERLIMIT/Unity
TTITLE9=FULL MONTY/Bombshell
TTITLE10=PREP TIMES/Artificial Life
TTITLE11=SUPER STRAW/Bad Town
TTITLE12=SKAY MATE’S/Sound System
TTITLE13=CHINKEES,THE/Crowd,the
EXTD=
EXTT0=
EXTT1=
EXTT2=
EXTT3=
EXTT4=
EXTT5=
EXTT6=
EXTT7=
EXTT8=
EXTT9=
EXTT10=
EXTT11=
EXTT12=
EXTT13=
PLAYORDER=
